<svg aria-hidden="true" style="position:absolute;width:0;height:0;overflow:hidden" xmlns="http://www.w3.org/2000/svg">
    <defs>
<symbol id="icon-cross" viewBox="0 0 32 32">
<path stroke-linejoin="miter" stroke-linecap="round" stroke-miterlimit="4" stroke-width="1.2" d="M22.4 9.6l-12.8 12.8M22.4 22.4l-12.8-12.8"></path>
</symbol>
<symbol id="icon-menu" viewBox="0 0 32 32" width="50">
<path stroke-linejoin="round" stroke-linecap="round" stroke-miterlimit="4" stroke-width="1.2308" d="M8 10.667h16M8 16h16M8 21.333h16"></path>
</symbol>
<symbol id="icon-linkedin" viewBox="0 0 32 32">
<path fill="#0076b2" style="fill: var(--color1, #0076b2)" d="M29 0.75h-26c-0.59-0.006-1.158 0.222-1.58 0.635s-0.663 0.975-0.67 1.565v26.105c0.009 0.589 0.25 1.151 0.672 1.562s0.989 0.639 1.578 0.633h26c0.59 0.005 1.158-0.224 1.579-0.637s0.663-0.976 0.671-1.565v-26.105c-0.011-0.588-0.253-1.148-0.674-1.559s-0.988-0.638-1.576-0.634z"></path>
<path fill="#fff" style="fill: var(--color2, #fff)" d="M5.265 12.182h4.527v14.568h-4.527v-14.568zM7.53 4.933c0.519 0 1.027 0.154 1.459 0.443s0.768 0.699 0.967 1.178c0.199 0.48 0.25 1.008 0.149 1.517s-0.352 0.977-0.719 1.344c-0.367 0.367-0.835 0.617-1.345 0.718s-1.037 0.049-1.517-0.15c-0.48-0.199-0.889-0.536-1.178-0.968s-0.442-0.94-0.441-1.459c0.001-0.696 0.278-1.363 0.77-1.855s1.16-0.768 1.855-0.768zM12.633 12.182h4.34v2h0.060c0.605-1.145 2.080-2.353 4.282-2.353 4.585-0.010 5.435 3.008 5.435 6.92v8h-4.527v-7.087c0-1.688-0.030-3.86-2.352-3.86s-2.718 1.84-2.718 3.75v7.197h-4.52v-14.568z"></path>
</symbol>
<symbol id="icon-facebook" viewBox="0 0 32 32">
<path fill="#0076b2" style="fill: var(--color1, #0076b2)" d="M32 16c0-8.836-7.163-16-16-16s-16 7.163-16 16c0 7.986 5.851 14.605 13.5 15.806v-11.181h-4.063v-4.625h4.063v-3.525c0-4.010 2.389-6.225 6.044-6.225 1.75 0 3.581 0.313 3.581 0.313v3.938h-2.017c-1.988 0-2.608 1.233-2.608 2.499v3.001h4.438l-0.709 4.625h-3.728v11.181c7.649-1.2 13.5-7.819 13.5-15.806z"></path>
<path fill="#fbfbfb" style="fill: var(--color4, #fbfbfb)" d="M22.228 20.625l0.709-4.625h-4.438v-3.001c0-1.265 0.62-2.499 2.608-2.499h2.017v-3.938c0 0-1.831-0.313-3.582-0.313-3.655 0-6.043 2.215-6.043 6.225v3.525h-4.063v4.625h4.063v11.181c0.827 0.13 1.663 0.195 2.5 0.194s1.673-0.065 2.5-0.194v-11.181h3.728z"></path>
</symbol>
<symbol id="icon-telegram" viewBox="0 0 32 32">
<path fill="#2AABEE" style="fill: var(--color3, #2AABEE)" d="M16 0c-4.242 0-8.315 1.687-11.313 4.686-3.001 3.001-4.687 7.070-4.688 11.314 0 4.242 1.688 8.314 4.688 11.314 2.998 3 7.070 4.686 11.313 4.686s8.315-1.687 11.313-4.686c3-3 4.688-7.072 4.688-11.314s-1.688-8.314-4.688-11.314c-2.997-2.999-7.070-4.686-11.313-4.686z"></path>
<path fill="#fff" style="fill: var(--color2, #fff)" d="M7.243 15.831c4.665-2.032 7.775-3.372 9.33-4.019 4.445-1.848 5.367-2.169 5.97-2.18 0.133-0.002 0.427 0.031 0.62 0.186 0.16 0.131 0.205 0.309 0.227 0.433 0.020 0.124 0.047 0.408 0.025 0.63-0.24 2.53-1.282 8.669-1.813 11.503-0.223 1.199-0.665 1.601-1.093 1.64-0.93 0.085-1.635-0.614-2.535-1.204-1.407-0.923-2.203-1.498-3.57-2.398-1.58-1.041-0.555-1.613 0.345-2.548 0.235-0.245 4.33-3.969 4.408-4.306 0.010-0.042 0.020-0.2-0.075-0.283-0.093-0.083-0.23-0.055-0.33-0.032-0.142 0.032-2.39 1.519-6.75 4.461-0.637 0.439-1.215 0.652-1.735 0.641-0.57-0.012-1.67-0.323-2.487-0.588-1-0.326-1.798-0.498-1.728-1.051 0.035-0.288 0.433-0.583 1.19-0.884z"></path>
</symbol>
<symbol id="icon-check" viewBox="0 0 32 32">
<path stroke-linejoin="round" stroke-linecap="round" stroke-miterlimit="4" stroke-width="3.3333" d="M26.666 9.333l-13.333 13.333-6.667-6.667"></path>
</symbol>
    </defs>
</svg>